<mxfile host="app.diagrams.net" modified="2024-05-12T06:55:35.168Z" agent="Mozilla/5.0 (Windows NT 10.0; Win64; x64) AppleWebKit/537.36 (KHTML, like Gecko) Chrome/124.0.0.0 Safari/537.36" etag="2b0RXhhsnCWvq4_S1IEN" version="24.4.0" type="device">
  <diagram name="Page-1" id="e7e014a7-5840-1c2e-5031-d8a46d1fe8dd">
    <mxGraphModel dx="712" dy="410" grid="0" gridSize="10" guides="1" tooltips="1" connect="1" arrows="1" fold="1" page="1" pageScale="1" pageWidth="1169" pageHeight="826" background="none" math="0" shadow="0">
      <root>
        <mxCell id="0" />
        <mxCell id="1" parent="0" />
        <mxCell id="d94YhT5Ea_skwj1IB6yy-41" value="Client（客户端）" style="swimlane;fontStyle=1;align=center;verticalAlign=top;childLayout=stackLayout;horizontal=1;startSize=26;horizontalStack=0;resizeParent=1;resizeParentMax=0;resizeLast=0;collapsible=1;marginBottom=0;whiteSpace=wrap;html=1;" parent="1" vertex="1">
          <mxGeometry x="347" y="237" width="160" height="81" as="geometry" />
        </mxCell>
        <mxCell id="d94YhT5Ea_skwj1IB6yy-43" value="" style="line;strokeWidth=1;fillColor=none;align=left;verticalAlign=middle;spacingTop=-1;spacingLeft=3;spacingRight=3;rotatable=0;labelPosition=right;points=[];portConstraint=eastwest;strokeColor=inherit;" parent="d94YhT5Ea_skwj1IB6yy-41" vertex="1">
          <mxGeometry y="26" width="160" height="55" as="geometry" />
        </mxCell>
        <mxCell id="d94YhT5Ea_skwj1IB6yy-45" value="Subject（抽象角色）" style="swimlane;fontStyle=1;align=center;verticalAlign=top;childLayout=stackLayout;horizontal=1;startSize=26;horizontalStack=0;resizeParent=1;resizeParentMax=0;resizeLast=0;collapsible=1;marginBottom=0;whiteSpace=wrap;html=1;" parent="1" vertex="1">
          <mxGeometry x="552" y="235.5" width="160" height="84" as="geometry" />
        </mxCell>
        <mxCell id="d94YhT5Ea_skwj1IB6yy-51" value="" style="text;strokeColor=none;fillColor=none;align=left;verticalAlign=middle;spacingTop=-1;spacingLeft=4;spacingRight=4;rotatable=0;labelPosition=right;points=[];portConstraint=eastwest;" parent="d94YhT5Ea_skwj1IB6yy-45" vertex="1">
          <mxGeometry y="26" width="160" height="24" as="geometry" />
        </mxCell>
        <mxCell id="d94YhT5Ea_skwj1IB6yy-47" value="" style="line;strokeWidth=1;fillColor=none;align=left;verticalAlign=middle;spacingTop=-1;spacingLeft=3;spacingRight=3;rotatable=0;labelPosition=right;points=[];portConstraint=eastwest;strokeColor=inherit;" parent="d94YhT5Ea_skwj1IB6yy-45" vertex="1">
          <mxGeometry y="50" width="160" height="8" as="geometry" />
        </mxCell>
        <mxCell id="d94YhT5Ea_skwj1IB6yy-48" value="+ request（）" style="text;strokeColor=none;fillColor=none;align=left;verticalAlign=top;spacingLeft=4;spacingRight=4;overflow=hidden;rotatable=0;points=[[0,0.5],[1,0.5]];portConstraint=eastwest;whiteSpace=wrap;html=1;" parent="d94YhT5Ea_skwj1IB6yy-45" vertex="1">
          <mxGeometry y="58" width="160" height="26" as="geometry" />
        </mxCell>
        <mxCell id="d94YhT5Ea_skwj1IB6yy-53" style="edgeStyle=orthogonalEdgeStyle;rounded=0;orthogonalLoop=1;jettySize=auto;html=1;entryX=0.001;entryY=0.659;entryDx=0;entryDy=0;entryPerimeter=0;dashed=1;endArrow=open;endFill=0;" parent="1" source="d94YhT5Ea_skwj1IB6yy-41" target="d94YhT5Ea_skwj1IB6yy-51" edge="1">
          <mxGeometry relative="1" as="geometry" />
        </mxCell>
        <mxCell id="d94YhT5Ea_skwj1IB6yy-54" value="Proxy（代理角色）" style="swimlane;fontStyle=1;align=center;verticalAlign=top;childLayout=stackLayout;horizontal=1;startSize=26;horizontalStack=0;resizeParent=1;resizeParentMax=0;resizeLast=0;collapsible=1;marginBottom=0;whiteSpace=wrap;html=1;" parent="1" vertex="1">
          <mxGeometry x="375" y="415" width="160" height="138" as="geometry" />
        </mxCell>
        <mxCell id="d94YhT5Ea_skwj1IB6yy-62" value="- realSubject : RealSubject" style="text;strokeColor=none;fillColor=none;align=left;verticalAlign=top;spacingLeft=4;spacingRight=4;overflow=hidden;rotatable=0;points=[[0,0.5],[1,0.5]];portConstraint=eastwest;whiteSpace=wrap;html=1;" parent="d94YhT5Ea_skwj1IB6yy-54" vertex="1">
          <mxGeometry y="26" width="160" height="26" as="geometry" />
        </mxCell>
        <mxCell id="d94YhT5Ea_skwj1IB6yy-56" value="" style="line;strokeWidth=1;fillColor=none;align=left;verticalAlign=middle;spacingTop=-1;spacingLeft=3;spacingRight=3;rotatable=0;labelPosition=right;points=[];portConstraint=eastwest;strokeColor=inherit;" parent="d94YhT5Ea_skwj1IB6yy-54" vertex="1">
          <mxGeometry y="52" width="160" height="8" as="geometry" />
        </mxCell>
        <mxCell id="d94YhT5Ea_skwj1IB6yy-57" value="+ preRequest（）&amp;nbsp;" style="text;strokeColor=none;fillColor=none;align=left;verticalAlign=top;spacingLeft=4;spacingRight=4;overflow=hidden;rotatable=0;points=[[0,0.5],[1,0.5]];portConstraint=eastwest;whiteSpace=wrap;html=1;" parent="d94YhT5Ea_skwj1IB6yy-54" vertex="1">
          <mxGeometry y="60" width="160" height="26" as="geometry" />
        </mxCell>
        <mxCell id="d94YhT5Ea_skwj1IB6yy-63" value="+ request（）" style="text;strokeColor=none;fillColor=none;align=left;verticalAlign=top;spacingLeft=4;spacingRight=4;overflow=hidden;rotatable=0;points=[[0,0.5],[1,0.5]];portConstraint=eastwest;whiteSpace=wrap;html=1;" parent="d94YhT5Ea_skwj1IB6yy-54" vertex="1">
          <mxGeometry y="86" width="160" height="26" as="geometry" />
        </mxCell>
        <mxCell id="d94YhT5Ea_skwj1IB6yy-64" value="+ postRequest（）" style="text;strokeColor=none;fillColor=none;align=left;verticalAlign=top;spacingLeft=4;spacingRight=4;overflow=hidden;rotatable=0;points=[[0,0.5],[1,0.5]];portConstraint=eastwest;whiteSpace=wrap;html=1;" parent="d94YhT5Ea_skwj1IB6yy-54" vertex="1">
          <mxGeometry y="112" width="160" height="26" as="geometry" />
        </mxCell>
        <mxCell id="d94YhT5Ea_skwj1IB6yy-58" value="RealSubject（真实角色）" style="swimlane;fontStyle=1;align=center;verticalAlign=top;childLayout=stackLayout;horizontal=1;startSize=26;horizontalStack=0;resizeParent=1;resizeParentMax=0;resizeLast=0;collapsible=1;marginBottom=0;whiteSpace=wrap;html=1;" parent="1" vertex="1">
          <mxGeometry x="705" y="437" width="160" height="84" as="geometry" />
        </mxCell>
        <mxCell id="d94YhT5Ea_skwj1IB6yy-59" value="" style="text;strokeColor=none;fillColor=none;align=left;verticalAlign=middle;spacingTop=-1;spacingLeft=4;spacingRight=4;rotatable=0;labelPosition=right;points=[];portConstraint=eastwest;" parent="d94YhT5Ea_skwj1IB6yy-58" vertex="1">
          <mxGeometry y="26" width="160" height="24" as="geometry" />
        </mxCell>
        <mxCell id="d94YhT5Ea_skwj1IB6yy-60" value="" style="line;strokeWidth=1;fillColor=none;align=left;verticalAlign=middle;spacingTop=-1;spacingLeft=3;spacingRight=3;rotatable=0;labelPosition=right;points=[];portConstraint=eastwest;strokeColor=inherit;" parent="d94YhT5Ea_skwj1IB6yy-58" vertex="1">
          <mxGeometry y="50" width="160" height="8" as="geometry" />
        </mxCell>
        <mxCell id="d94YhT5Ea_skwj1IB6yy-61" value="+ request（）" style="text;strokeColor=none;fillColor=none;align=left;verticalAlign=top;spacingLeft=4;spacingRight=4;overflow=hidden;rotatable=0;points=[[0,0.5],[1,0.5]];portConstraint=eastwest;whiteSpace=wrap;html=1;" parent="d94YhT5Ea_skwj1IB6yy-58" vertex="1">
          <mxGeometry y="58" width="160" height="26" as="geometry" />
        </mxCell>
        <mxCell id="d94YhT5Ea_skwj1IB6yy-65" style="edgeStyle=orthogonalEdgeStyle;rounded=0;orthogonalLoop=1;jettySize=auto;html=1;entryX=0.312;entryY=0.998;entryDx=0;entryDy=0;entryPerimeter=0;endArrow=block;endFill=0;" parent="1" source="d94YhT5Ea_skwj1IB6yy-54" target="d94YhT5Ea_skwj1IB6yy-48" edge="1">
          <mxGeometry relative="1" as="geometry">
            <Array as="points">
              <mxPoint x="602" y="459" />
            </Array>
          </mxGeometry>
        </mxCell>
        <mxCell id="d94YhT5Ea_skwj1IB6yy-66" style="edgeStyle=orthogonalEdgeStyle;rounded=0;orthogonalLoop=1;jettySize=auto;html=1;entryX=0.709;entryY=0.97;entryDx=0;entryDy=0;entryPerimeter=0;endArrow=block;endFill=0;" parent="1" source="d94YhT5Ea_skwj1IB6yy-58" target="d94YhT5Ea_skwj1IB6yy-48" edge="1">
          <mxGeometry relative="1" as="geometry">
            <Array as="points">
              <mxPoint x="665" y="463" />
              <mxPoint x="665" y="378" />
              <mxPoint x="665" y="378" />
            </Array>
          </mxGeometry>
        </mxCell>
        <mxCell id="d94YhT5Ea_skwj1IB6yy-67" style="edgeStyle=orthogonalEdgeStyle;rounded=0;orthogonalLoop=1;jettySize=auto;html=1;entryX=0.007;entryY=0.198;entryDx=0;entryDy=0;entryPerimeter=0;endArrow=open;endFill=0;" parent="1" source="d94YhT5Ea_skwj1IB6yy-54" target="d94YhT5Ea_skwj1IB6yy-61" edge="1">
          <mxGeometry relative="1" as="geometry">
            <Array as="points">
              <mxPoint x="613" y="500" />
              <mxPoint x="613" y="500" />
            </Array>
          </mxGeometry>
        </mxCell>
        <mxCell id="d94YhT5Ea_skwj1IB6yy-70" style="rounded=0;orthogonalLoop=1;jettySize=auto;html=1;entryX=0;entryY=0.5;entryDx=0;entryDy=0;endArrow=none;endFill=0;dashed=1;" parent="1" source="d94YhT5Ea_skwj1IB6yy-68" target="d94YhT5Ea_skwj1IB6yy-63" edge="1">
          <mxGeometry relative="1" as="geometry" />
        </mxCell>
        <mxCell id="d94YhT5Ea_skwj1IB6yy-68" value="preRequest（）&lt;div&gt;readSubject.request（）&lt;/div&gt;&lt;div&gt;postReqest（）&lt;/div&gt;" style="shape=note;whiteSpace=wrap;html=1;backgroundOutline=1;darkOpacity=0.05;size=12;align=left;" parent="1" vertex="1">
          <mxGeometry x="208" y="494" width="134" height="80" as="geometry" />
        </mxCell>
        <mxCell id="fa1sSOiMavlnfMokDYzC-1" value="调用RealSubject方法" style="text;html=1;align=center;verticalAlign=middle;resizable=0;points=[];autosize=1;strokeColor=none;fillColor=none;" vertex="1" parent="1">
          <mxGeometry x="559" y="474" width="131" height="26" as="geometry" />
        </mxCell>
        <mxCell id="fa1sSOiMavlnfMokDYzC-2" value="实现" style="text;html=1;align=center;verticalAlign=middle;resizable=0;points=[];autosize=1;strokeColor=none;fillColor=none;" vertex="1" parent="1">
          <mxGeometry x="663" y="363" width="42" height="26" as="geometry" />
        </mxCell>
        <mxCell id="fa1sSOiMavlnfMokDYzC-3" value="实现" style="text;html=1;align=center;verticalAlign=middle;resizable=0;points=[];autosize=1;strokeColor=none;fillColor=none;" vertex="1" parent="1">
          <mxGeometry x="559" y="363" width="42" height="26" as="geometry" />
        </mxCell>
      </root>
    </mxGraphModel>
  </diagram>
</mxfile>
